<?xml version="1.0" standalone="no"?>
<!DOCTYPE svg PUBLIC "-//W3C//DTD SVG 20010904//EN"
 "http://www.w3.org/TR/2001/REC-SVG-20010904/DTD/svg10.dtd">
<svg version="1.0" xmlns="http://www.w3.org/2000/svg"
 width="300.000000pt" height="300.000000pt" viewBox="0 0 300.000000 300.000000"
 preserveAspectRatio="xMidYMid meet">
<metadata>
Created by potrace 1.16, written by Peter Selinger 2001-2019
</metadata>
<g transform="translate(0.000000,300.000000) scale(0.100000,-0.100000)"
fill="#000000" stroke="none">
<path d="M995 2926 c-404 -59 -723 -296 -865 -643 -131 -323 -106 -754 66
-1132 36 -77 154 -281 164 -281 3 0 14 16 25 36 10 20 43 58 73 85 l54 49 -45
78 c-82 143 -142 298 -183 477 -15 63 -19 120 -19 275 0 170 3 207 23 284 93
365 369 625 750 708 137 29 356 29 502 -1 185 -39 386 -117 521 -203 68 -43
90 -54 64 -33 -88 73 -361 204 -520 250 -197 57 -435 77 -610 51z m295 -6 c63
-6 140 -17 170 -24 l55 -14 -60 6 c-100 11 -315 7 -390 -7 -214 -42 -399 -136
-536 -273 -287 -287 -362 -733 -204 -1208 31 -96 33 -107 19 -127 -8 -13 -18
-22 -22 -21 -13 4 -93 -43 -99 -58 -14 -38 -60 57 -108 223 -63 216 -72 512
-22 704 54 208 145 367 289 505 196 188 446 286 768 303 14 0 77 -4 140 -9z"/>
<path d="M800 2459 c-111 -22 -238 -116 -293 -218 -149 -273 15 -602 323 -650
287 -46 545 212 499 499 -40 253 -277 418 -529 369z m215 -71 c89 -23 180 -90
216 -160 24 -47 36 -123 20 -132 -6 -4 -11 -3 -11 2 0 5 -7 9 -15 9 -8 0 -15
-3 -15 -6 0 -3 -153 -6 -340 -6 l-340 0 0 31 c0 90 77 192 181 239 95 42 197
50 304 23z"/>
<path d="M1480 1997 c-30 -16 -51 -37 -67 -67 -22 -42 -23 -50 -23 -327 0
-155 3 -283 8 -283 4 1 32 16 62 34 l55 32 3 241 c2 176 6 244 15 251 18 15
1212 20 1227 6 16 -16 14 -832 -2 -851 -8 -10 -126 -13 -600 -13 l-589 0 -64
-37 c-36 -21 -65 -40 -65 -43 0 -3 15 -15 33 -25 29 -18 56 -20 297 -25 l265
-5 0 -45 0 -45 -110 -7 c-235 -16 -274 -52 -84 -77 178 -23 635 -11 716 20 57
22 -26 47 -184 56 l-113 6 0 49 0 48 258 0 c248 0 258 1 297 23 22 13 49 40
62 62 23 40 23 42 23 473 0 345 -3 439 -14 465 -16 39 -61 82 -99 96 -19 7
-234 11 -646 11 l-618 0 -43 -23z"/>
<path d="M1550 1703 c0 -86 1 -154 3 -152 14 18 45 79 38 75 -9 -6 -21 87 -21
165 l0 49 576 0 577 0 -5 -115 c-2 -63 -6 -117 -9 -119 -2 -2 -42 0 -89 6
-106 12 -249 4 -359 -21 -72 -16 -87 -17 -99 -5 -7 8 -18 14 -25 14 -6 0 -3
-6 6 -12 15 -11 9 -13 -35 -12 -29 0 -62 -3 -73 -8 -15 -7 -14 -4 5 12 l25 21
-43 -21 c-26 -12 -40 -25 -36 -32 4 -7 3 -8 -4 -4 -7 4 -35 -5 -62 -20 l-51
-28 3 -55 c3 -55 4 -56 49 -80 l46 -25 136 77 c74 42 138 77 142 77 15 0 -5
-169 -26 -225 -26 -70 -103 -155 -171 -189 l-52 -26 372 0 372 0 0 405 0 405
-595 0 -595 0 0 -157z"/>
<path d="M1773 1674 c-98 -35 -177 -144 -189 -261 l-7 -63 -66 -37 c-36 -20
-192 -108 -346 -195 l-279 -159 -52 26 c-113 57 -242 40 -335 -43 -28 -25 -59
-62 -69 -82 -21 -41 -37 -120 -25 -120 4 0 51 25 104 55 54 30 101 55 106 55
4 0 41 -19 81 -42 l74 -43 0 -91 0 -90 -105 -60 c-58 -32 -105 -62 -105 -65 0
-17 72 -34 140 -34 59 0 86 5 124 24 98 48 164 148 171 257 l3 56 269 152
c147 84 303 173 346 197 l79 45 58 -29 c147 -73 321 -15 397 132 29 56 44 121
27 121 -3 0 -51 -26 -107 -57 l-101 -57 -75 41 -76 40 -3 94 -3 94 93 52 c135
77 128 70 86 88 -47 19 -159 19 -215 -1z"/>
<path d="M549 1607 c-19 -23 -40 -50 -47 -59 -12 -14 -3 -24 67 -79 45 -34 81
-66 81 -70 0 -4 -20 -31 -44 -61 -25 -29 -42 -56 -38 -59 20 -18 355 -239 357
-237 2 2 -14 32 -34 68 -21 36 -91 160 -156 275 -65 116 -125 222 -134 237
l-17 28 -35 -43z"/>
<path d="M1146 1598 c-43 -117 -185 -542 -182 -545 2 -2 78 72 169 164 l166
168 -65 19 c-36 10 -63 23 -62 27 2 4 35 32 75 62 l71 53 -56 34 c-31 18 -67
40 -78 47 -21 13 -23 12 -38 -29z"/>
<path d="M897 1502 l-47 -48 31 -30 30 -30 -16 -96 -17 -96 27 -52 c15 -29 30
-49 35 -44 4 5 21 52 38 104 26 80 30 102 22 140 -8 42 -6 47 21 75 l29 31
-48 47 c-26 26 -50 47 -53 47 -2 0 -26 -21 -52 -48z"/>
<path d="M2906 855 c-14 -59 -87 -195 -146 -273 -139 -185 -331 -302 -585
-358 -121 -26 -348 -24 -492 4 -208 41 -419 126 -588 236 -47 31 -88 56 -90
56 -3 0 -22 -18 -42 -41 -20 -22 -56 -52 -80 -66 -25 -14 -41 -29 -36 -32 187
-133 438 -242 674 -293 86 -18 137 -22 294 -22 207 -1 271 8 419 56 253 82
464 259 588 494 48 92 102 237 95 257 -2 7 -7 -2 -11 -18z"/>
<path d="M548 747 c-32 -18 -58 -37 -58 -42 0 -6 29 -39 64 -74 l64 -63 46 27
c46 27 46 27 46 80 0 53 0 53 -46 79 -26 14 -49 26 -53 26 -3 -1 -32 -15 -63
-33z"/>
</g>
</svg>
